<?xml version="1.0" standalone="no"?>
<!DOCTYPE svg PUBLIC "-//W3C//DTD SVG 20010904//EN"
 "http://www.w3.org/TR/2001/REC-SVG-20010904/DTD/svg10.dtd">
<svg version="1.0" xmlns="http://www.w3.org/2000/svg"
 width="128.000000pt" height="128.000000pt" viewBox="0 0 128.000000 128.000000"
 preserveAspectRatio="xMidYMid meet">
<metadata>
Created by potrace 1.11, written by Peter Selinger 2001-2013
</metadata>
<g transform="translate(0.000000,128.000000) scale(0.100000,-0.100000)"
fill="#000000" stroke="none">
<path d="M390 1193 c-61 -42 -86 -101 -124 -284 -14 -68 -28 -133 -31 -144 -4
-18 -12 -20 -105 -19 -102 1 -130 -7 -130 -39 1 -36 18 -41 124 -41 l106 0 0
-118 c0 -65 0 -119 0 -120 0 -2 7 -28 16 -58 34 -118 109 -207 223 -262 61
-31 72 -33 171 -33 99 0 110 2 172 33 120 59 205 167 228 291 5 29 10 102 10
160 l0 107 106 0 c106 1 123 6 124 41 0 32 -29 41 -125 39 -56 -1 -100 3 -104
9 -4 5 -16 51 -25 100 -41 214 -86 320 -149 346 -42 18 -110 5 -163 -30 -61
-40 -87 -39 -154 4 -63 40 -128 47 -170 18z m139 -95 c79 -54 159 -50 240 13
13 11 36 19 51 19 52 0 76 -50 118 -247 19 -87 25 -133 18 -135 -9 -3 -614 -2
-639 1 -5 1 -6 5 -3 9 3 5 8 22 10 38 60 328 94 378 205 302z m439 -568 c-3
-110 -8 -144 -25 -182 -28 -63 -96 -134 -158 -166 -43 -23 -62 -26 -145 -27
-81 0 -102 4 -138 23 -67 36 -129 98 -159 160 -25 51 -28 69 -31 185 -3 81 0
132 6 136 6 3 155 6 332 6 l322 1 -4 -136z"/>
<path d="M404 565 c-21 -54 52 -126 119 -119 89 10 81 23 -65 108 -42 25 -49
26 -54 11z"/>
<path d="M783 532 c-45 -26 -83 -52 -83 -59 -1 -37 110 -34 152 4 20 18 35 80
22 93 -5 5 -45 -12 -91 -38z"/>
</g>
</svg>
